<?xml version="1.0" encoding="iso-8859-1"?>
<!-- Generator: Adobe Illustrator 19.0.0, SVG Export Plug-In . SVG Version: 6.00 Build 0)  -->
<svg version="1.1" id="Layer_1" xmlns="http://www.w3.org/2000/svg" xmlns:xlink="http://www.w3.org/1999/xlink" x="0px" y="0px"
	 viewBox="0 0 512 512" style="enable-background:new 0 0 512 512;" xml:space="preserve">
<path style="fill:#EDEDD3;" d="M338.473,149.57v75.045h93.518V69.823c0-5.747-4.702-10.449-10.449-10.449H111.804
	c-5.747,0-10.449,4.702-10.449,10.449v69.298h226.669C333.771,139.121,338.473,143.823,338.473,149.57z"/>
<path style="fill:#FF9B4B;" d="M338.473,149.57v75.045h69.207V83.774H125.668v55.347h202.357
	C333.771,139.121,338.473,143.823,338.473,149.57z"/>
<rect x="125.67" y="83.77" style="opacity:0.1;enable-background:new    ;" width="27.932" height="55.347"/>
<path style="fill:#D6D5D6;" d="M173.527,235.064c0-5.747,4.702-10.449,10.449-10.449h154.497V149.57
	c0-5.747-4.702-10.449-10.449-10.449H18.286c-5.747,0-10.449,4.702-10.449,10.449v207.117c0,5.747,4.702,10.449,10.449,10.449
	h155.242V235.064z"/>
<path style="fill:#0184B8;" d="M173.527,235.064c0-5.747,4.702-10.449,10.449-10.449h130.185v-61.092H32.149v179.21h141.379V235.064
	H173.527z"/>
<path style="fill:#FFFFFF;" d="M173.527,236.747c-3.618-1.116-7.461-1.719-11.444-1.719c-20.643,0-37.524,16.132-38.837,36.52
	c-5.111-3.685-11.375-5.859-18.148-5.859c-14.845,0-27.257,10.423-30.387,24.371c-6.139-2.278-12.778-3.527-19.708-3.527
	c-8.133,0-15.862,1.728-22.856,4.818v51.38h141.379L173.527,236.747L173.527,236.747z"/>
<rect x="32.149" y="163.527" style="opacity:0.1;enable-background:new    ;" width="32.632" height="179.21"/>
<path style="fill:#EDEDD3;" d="M504.163,442.178c0,5.747-4.702,10.449-10.449,10.449H183.976c-5.747,0-10.449-4.702-10.449-10.449
	V235.064c0-5.747,4.702-10.449,10.449-10.449h309.738c5.747,0,10.449,4.702,10.449,10.449V442.178z"/>
<rect x="197.841" y="249.01" style="fill:#91CFE5;" width="282.018" height="179.21"/>
<path style="fill:#A0C663;" d="M476.164,387.721l-63.47-63.702c-2.028-2.035-5.347-2.035-7.375,0l-66.034,66.279l34.1,34.228
	c2.028,2.035,1.336,3.701-1.537,3.701h102.779c2.873,0,5.224-2.351,5.224-5.224v-26.355
	C479.852,393.773,478.192,389.758,476.164,387.721z"/>
<ellipse style="fill:#FBD33B;" cx="286.574" cy="299.573" rx="22.548" ry="22.632"/>
<path style="opacity:0.1;enable-background:new    ;" d="M281.956,299.578c0-9.302,5.592-17.288,13.584-20.767
	c-2.748-1.196-5.778-1.863-8.964-1.863c-12.453,0-22.549,10.13-22.549,22.63c0,12.5,10.095,22.632,22.549,22.632
	c3.186,0,6.216-0.668,8.964-1.863C287.549,316.867,281.956,308.88,281.956,299.578z"/>
<path style="fill:#648C3A;" d="M310.923,361.832c-2.028-2.035-5.347-2.035-7.375,0l-25.446,25.54c-2.028,2.035-5.347,2.035-7.375,0
	l-40.024-40.171c-2.028-2.035-5.347-2.035-7.375,0l-21.804,21.883c-2.028,2.035-3.687,6.052-3.687,8.926v44.992
	c0,2.873,2.351,5.224,5.224,5.224h168.787c2.873,0,3.565-1.666,1.537-3.701L310.923,361.832z"/>
<path d="M493.714,216.778h-53.885V161.96c0-4.329-3.509-7.837-7.837-7.837c-4.328,0-7.837,3.508-7.837,7.837v54.818h-8.638V83.774
	c0-4.328-3.509-7.837-7.837-7.837H125.668c-4.328,0-7.837,3.509-7.837,7.837v47.51h-8.639V69.824c0-1.417,1.196-2.612,2.612-2.612
	h309.739c1.416,0,2.612,1.195,2.612,2.612v57.659c0,4.329,3.509,7.837,7.837,7.837c4.328,0,7.837-3.508,7.837-7.837v-57.66
	c0-10.082-8.203-18.286-18.286-18.286H111.804c-10.082,0-18.286,8.203-18.286,18.286v61.461H18.286
	C8.203,131.284,0,139.487,0,149.569v207.117c0,10.082,8.203,18.286,18.286,18.286h147.405v67.206
	c0,10.082,8.203,18.286,18.286,18.286h309.738c10.082,0,18.286-8.204,18.286-18.286V235.064
	C512,224.982,503.796,216.778,493.714,216.778z M165.691,334.897H39.986v-38.16c4.837-1.57,9.869-2.365,15.019-2.365
	c5.836,0,11.549,1.022,16.982,3.038c2.121,0.785,4.477,0.619,6.466-0.461c1.987-1.078,3.413-2.964,3.908-5.171
	c2.372-10.574,11.936-18.25,22.74-18.25c4.902,0,9.592,1.514,13.564,4.378c2.312,1.669,5.349,1.949,7.929,0.731
	c2.579-1.217,4.292-3.739,4.476-6.585c1.053-16.366,14.678-29.187,31.017-29.187c1.218,0,2.42,0.082,3.607,0.225v91.807H165.691z
	 M167.35,227.498c-1.732-0.199-3.489-0.305-5.266-0.305c-20.71,0-38.518,13.674-44.561,32.688
	c-3.965-1.339-8.147-2.026-12.424-2.026c-15.513,0-29.08,8.945-35.348,22.543c-4.812-1.128-9.747-1.698-14.747-1.698
	c-5.11,0-10.127,0.612-15.019,1.787V171.36h55.101c4.328,0,7.837-3.508,7.837-7.837c0-4.329-3.509-7.837-7.837-7.837H32.149
	c-4.328,0-7.837,3.508-7.837,7.837v179.21c0,4.329,3.509,7.837,7.837,7.837h133.542v8.729H18.286c-1.416,0-2.612-1.196-2.612-2.612
	V149.57c0-1.416,1.196-2.612,2.612-2.612h309.738c1.416,0,2.612,1.196,2.612,2.612v67.208h-8.638v-53.255
	c0-4.329-3.509-7.837-7.837-7.837H125.387c-4.328,0-7.837,3.508-7.837,7.837c0,4.329,3.509,7.837,7.837,7.837h180.938v45.419
	H183.976C176.594,216.778,170.235,221.185,167.35,227.498z M496.327,442.178c0,1.416-1.196,2.612-2.612,2.612H183.976
	c-1.416,0-2.612-1.196-2.612-2.612V235.064c0-1.416,1.196-2.612,2.612-2.612H356.31c4.328,0,7.837-3.508,7.837-7.837
	c0-4.329-3.509-7.837-7.837-7.837h-10.001V149.57c0-10.082-8.203-18.286-18.286-18.286H133.505V91.611h266.339v125.167h-10.097
	c-4.328,0-7.837,3.508-7.837,7.837c0,4.329,3.509,7.837,7.837,7.837h103.967c1.416,0,2.612,1.196,2.612,2.612V442.178z"/>
<path d="M479.852,241.177H197.839c-4.328,0-7.837,3.508-7.837,7.837v179.215c0,4.329,3.509,7.837,7.837,7.837h282.014
	c4.328,0,7.837-3.508,7.837-7.837V249.013C487.688,244.684,484.18,241.177,479.852,241.177z M205.676,420.39v-42.377
	c0.015-0.849,0.816-2.788,1.402-3.397l19.94-20.013l38.16,38.3c2.462,2.471,5.744,3.833,9.239,3.833s6.777-1.362,9.239-3.833
	l23.581-23.669l50.967,51.156L205.676,420.39L205.676,420.39z M472.015,372.454l-53.769-53.965
	c-2.462-2.471-5.744-3.833-9.239-3.833c-3.496,0-6.777,1.362-9.239,3.832l-25.925,26.021c-3.055,3.067-3.046,8.029,0.021,11.083
	c3.066,3.053,8.028,3.043,11.083-0.021l24.061-24.151l61.604,61.83c0.588,0.612,1.39,2.55,1.404,3.396v23.743h-91.867
	c-0.363-0.48-0.764-0.947-1.211-1.396l-28.589-28.696l14.819-14.872c3.055-3.067,3.046-8.029-0.021-11.083
	c-3.067-3.054-8.029-3.045-11.083,0.021l-14.777,14.832l-22.81-22.894c-2.463-2.471-5.744-3.833-9.239-3.833
	c-3.495,0-6.777,1.362-9.239,3.833l-23.581,23.669l-38.16-38.3c-2.462-2.471-5.744-3.833-9.239-3.833
	c-3.495,0-6.777,1.362-9.239,3.832l-12.103,12.147V256.85h266.34v115.604H472.015z"/>
<path d="M286.576,330.047c16.754,0,30.385-13.668,30.385-30.469c0-16.8-13.631-30.467-30.385-30.467
	c-16.755,0-30.386,13.667-30.386,30.467C256.191,316.379,269.821,330.047,286.576,330.047z M286.576,284.784
	c8.112,0,14.711,6.637,14.711,14.794c0,8.159-6.6,14.796-14.711,14.796c-8.113,0-14.712-6.638-14.712-14.796
	C271.865,291.42,278.463,284.784,286.576,284.784z"/>
<rect x="197.841" y="249.01" style="opacity:0.1;enable-background:new    ;" width="33.084" height="179.21"/>
<g>
</g>
<g>
</g>
<g>
</g>
<g>
</g>
<g>
</g>
<g>
</g>
<g>
</g>
<g>
</g>
<g>
</g>
<g>
</g>
<g>
</g>
<g>
</g>
<g>
</g>
<g>
</g>
<g>
</g>
</svg>
